# xmcd
#
# Track frame offsets:
#	150
#	15483
#	28809
#	44396
#	58728
#	84638
#	100703
#	126256
#	137360
#	162049
#
# Disc length: 2249 seconds
#
# Revision: 1
# Processed by: cddbd v1.5.2PL0 Copyright (c) Steve Scherf et al.
# Submitted via: audiograbber 1.83.01
#
DISCID=7808c70a
DTITLE=Rajaajaja - Vari, valge kass ja Kuu
DYEAR=2011
DGENRE=blues
TTITLE0=Bluus agulis
TTITLE1=Valu
TTITLE2=Külmavärvid
TTITLE3=Kolmekümnes ring ümber Päikese
TTITLE4=Vana harjuski hala
TTITLE5=Karikakramäng
TTITLE6=Pärast mind
TTITLE7=Seal, kus koos on päev ja õhtu
TTITLE8=Vari, valge kass ja Kuu
TTITLE9=Vesteid vanast varesest
EXTD=
EXTT0=
EXTT1=
EXTT2=
EXTT3=
EXTT4=
EXTT5=
EXTT6=
EXTT7=
EXTT8=
EXTT9=
PLAYORDER=
